<?xml version="1.0" encoding="UTF-8"?>
<svg id="Layer_1" data-name="Layer 1" xmlns="http://www.w3.org/2000/svg" xmlns:xlink="http://www.w3.org/1999/xlink" viewBox="0 0 2680.12 1461.2">
  <defs>
    <style>
      .cls-1 {
        stroke-width: 0px;
      }

      .cls-1, .cls-2 {
        fill: #f15922;
      }

      .cls-3 {
        clip-path: url(#clippath-2);
      }

      .cls-4 {
        clip-path: url(#clippath-3);
      }
    </style>
    <clipPath id="clippath-2">
      <path class="cls-1" d="M2323.32,1093.44c-55.62-6.29-111.31-13.38-167.17-15.89-304.7-13.71-609.33-5.81-913.95,4.29-40.6-1.07-81.22-2.76-121.75-1.48-148.68,4.72-296.97,16.31-445.12,30.13-91.11,8.5-181.76,20.38-271.54,39.08-14.9,3.1-40.8,3.92-39.94,20.38,1.1,21.06,27.42,16.99,42.74,19.14,124.96,17.56,250.7,24.13,376.4,25.57,247.25,2.82,494.46-.38,741.5-10.99,36.46-1.57,98.04-4.32,134.17-12.34-.03-.02-.06-.03-.09-.05,159.54-6.16,318.78-17.06,477.54-34.06,63.47-6.8,127.3-12.7,189.35-29.13,11.61-3.07,29.56-4.96,28.75-18.88-.81-13.87-19.36-14.47-30.88-15.78Z"/>
    </clipPath>
    <clipPath id="clippath-3">
      <path class="cls-1" d="M1350.97,485.01s-.08.12-.08.12h0c-.99,1.05-4.15,3.39-5.14,4.43-2.21-.54-2.25-2.38-4.46-2.92-7.54-12.43-14.3-25.41-24.87-35.73-1.51-2.34-3.01-4.69-4.52-7.03-20.18-36.27-45.93-68.91-67.8-104.08-3.06-4.92-10.08-9.86-7.01-15.52,3.04-5.61,11.11-3.13,16.85-2.69,14.94,1.12,19.49-4.41,18.69-19.85-1.81-34.79-1.24-69.7-1.77-104.56-.43-27.76-.51-27.53-27.7-26.99-54.7,1.09-109.41,1.74-164.11,2.89-64.23,1.36-128.46,3.07-192.69,4.62-2.53.07-5.07.13-7.6.2-5.58-.35-9-2.68-11.5-5.86l-55.87-123.31c-1.16-2.7-2.37-5.38-3.64-8.03l-12.21-26.95c-3.75-10.66-10.46-14-21.96-13.73-72.18,1.67-144.39,2.37-216.58,3.85-9.31.19-19.72,1.12-22.52,13.44,0,0-.26.61-.26.61-7.01,18.69-2.67,27.23,16.18,31.83,0,0,1.08.15,1.08.15q18.84.41,46.4-.15l22.1-.07c20.95.93,41.88.45,62.82-.21l56.55-.19c.31.15.69.15,1.15,0l98.3,381.55,6.01,33.13c6.61,44.21,14.4,88.22,23.44,132.01l49.8,259.17c7,14.38,23.49,38.74,53.91,35.46h.19c3.1.09,6.23,0,9.38-.18l22.17-.41c.77.04,1.54.03,2.3-.04l33.64-.62c1.21.05,2.42.02,3.63-.07l27.78-.51c5.95.51,11.91.37,17.87-.33l409.49-7.56c3.16.43,6.41-.11,9.61-.17,8.54-.16,17.08-.32,25.61-.48l151.2-2.79c34.26-.58,55.97-15.8,66.81-47.24,6.11-17.72,3.71-21.31-14.8-21.01-15.92.26-31.85.56-47.77.83v-.04s-392.18,6.73-392.18,6.73c-19.04-1.99-38.11.5-57.12.89-24.89.51-49.95-1.24-74.78,1.38l-55.43.95c-12.37-.06-24.75.33-37.13.64l-17.77.31c-12.6.07-25.38,1.73-37.66-1.54-8.62-2.3-18.2-5.89-16.94-17.56,1.12-10.4,5.87-19.77,16.73-22.93l744.79-13.22,1.32-9.42c.93-2.07,1.27-5.04,1.35-9.59l16.04-114.2h0c6.4-45.51,12.77-91.03,19.06-136.56,11.61-84.05,24.08-168,34.09-252.24,6.04-50.81-26.24-83-76.67-81.77-60.11,1.46-120.24,2.26-180.37,3.24-49.92.81-99.83,1.4-149.75,2.22-9.53.16-18.07,1.31-17.65,14.65,1.29,40.88,2.25,81.77,2.8,122.66.15,11.1,4.27,14.53,15.31,13.95,6.46-.34,16.37-3.53,19.5,3.99,2.77,6.66-4.58,12.99-8.31,19.09"/>
    </clipPath>
  </defs>
  <g>
    <g>
      <path class="cls-2" d="M2323.32,1093.44c-55.62-6.29-111.31-13.38-167.17-15.89-304.7-13.71-609.33-5.81-913.95,4.29-40.6-1.07-81.22-2.76-121.75-1.48-148.68,4.72-296.97,16.31-445.12,30.13-91.11,8.5-181.76,20.38-271.54,39.08-14.9,3.1-40.8,3.92-39.94,20.38,1.1,21.06,27.42,16.99,42.74,19.14,124.96,17.56,250.7,24.13,376.4,25.57,247.25,2.82,494.46-.38,741.5-10.99,36.46-1.57,98.04-4.32,134.17-12.34-.03-.02-.06-.03-.09-.05,159.54-6.16,318.78-17.06,477.54-34.06,63.47-6.8,127.3-12.7,189.35-29.13,11.61-3.07,29.56-4.96,28.75-18.88-.81-13.87-19.36-14.47-30.88-15.78Z"/>
      <g class="cls-3">
        <polygon class="cls-1" points="362.98 1142.38 365.32 1217.49 362.98 1217.49 362.98 1142.38"/>
        <polygon class="cls-1" points="402.04 1063.84 406.83 1217.49 365.32 1217.49 362.98 1142.38 362.98 1063.84 402.04 1063.84"/>
        <polygon class="cls-1" points="443.54 1063.84 448.33 1217.49 406.83 1217.49 402.04 1063.84 443.54 1063.84"/>
        <polygon class="cls-1" points="485.05 1063.84 489.84 1217.49 448.33 1217.49 443.54 1063.84 485.05 1063.84"/>
        <polygon class="cls-1" points="526.55 1063.84 531.34 1217.49 489.84 1217.49 485.05 1063.84 526.55 1063.84"/>
        <polygon class="cls-1" points="568.06 1063.84 572.85 1217.49 531.34 1217.49 526.55 1063.84 568.06 1063.84"/>
        <polygon class="cls-1" points="609.57 1063.84 614.35 1217.49 572.85 1217.49 568.06 1063.84 609.57 1063.84"/>
        <polygon class="cls-1" points="651.07 1063.84 655.86 1217.49 614.35 1217.49 609.57 1063.84 651.07 1063.84"/>
        <polygon class="cls-1" points="692.58 1063.84 697.36 1217.49 655.86 1217.49 651.07 1063.84 692.58 1063.84"/>
        <polygon class="cls-1" points="734.08 1063.84 738.87 1217.49 697.36 1217.49 692.58 1063.84 734.08 1063.84"/>
        <polygon class="cls-1" points="775.59 1063.84 780.37 1217.49 738.87 1217.49 734.08 1063.84 775.59 1063.84"/>
        <polygon class="cls-1" points="817.09 1063.84 821.88 1217.49 780.37 1217.49 775.59 1063.84 817.09 1063.84"/>
        <polygon class="cls-1" points="858.6 1063.84 863.38 1217.49 821.88 1217.49 817.09 1063.84 858.6 1063.84"/>
        <polygon class="cls-1" points="900.1 1063.84 904.89 1217.49 863.38 1217.49 858.6 1063.84 900.1 1063.84"/>
        <polygon class="cls-1" points="941.61 1063.84 946.4 1217.49 904.89 1217.49 900.1 1063.84 941.61 1063.84"/>
        <polygon class="cls-1" points="983.11 1063.84 987.9 1217.49 946.4 1217.49 941.61 1063.84 983.11 1063.84"/>
        <polygon class="cls-1" points="1024.62 1063.84 1029.41 1217.49 987.9 1217.49 983.11 1063.84 1024.62 1063.84"/>
        <polygon class="cls-1" points="1066.13 1063.84 1070.91 1217.49 1029.41 1217.49 1024.62 1063.84 1066.13 1063.84"/>
        <polygon class="cls-1" points="1107.63 1063.84 1112.42 1217.49 1070.91 1217.49 1066.13 1063.84 1107.63 1063.84"/>
        <polygon class="cls-1" points="1149.14 1063.84 1153.92 1217.49 1112.42 1217.49 1107.63 1063.84 1149.14 1063.84"/>
        <polygon class="cls-1" points="1190.64 1063.84 1195.43 1217.49 1153.92 1217.49 1149.14 1063.84 1190.64 1063.84"/>
        <polygon class="cls-1" points="1232.15 1063.84 1236.93 1217.49 1195.43 1217.49 1190.64 1063.84 1232.15 1063.84"/>
        <polygon class="cls-1" points="1273.65 1063.84 1278.44 1217.49 1236.93 1217.49 1232.15 1063.84 1273.65 1063.84"/>
        <polygon class="cls-1" points="1315.16 1063.84 1319.94 1217.49 1278.44 1217.49 1273.65 1063.84 1315.16 1063.84"/>
        <polygon class="cls-1" points="1356.66 1063.84 1361.45 1217.49 1319.94 1217.49 1315.16 1063.84 1356.66 1063.84"/>
        <polygon class="cls-1" points="1398.17 1063.84 1402.96 1217.49 1361.45 1217.49 1356.66 1063.84 1398.17 1063.84"/>
        <polygon class="cls-1" points="1439.67 1063.84 1444.46 1217.49 1402.96 1217.49 1398.17 1063.84 1439.67 1063.84"/>
        <polygon class="cls-1" points="1481.18 1063.84 1485.97 1217.49 1444.46 1217.49 1439.67 1063.84 1481.18 1063.84"/>
        <polygon class="cls-1" points="1522.68 1063.84 1527.47 1217.49 1485.97 1217.49 1481.18 1063.84 1522.68 1063.84"/>
        <polygon class="cls-1" points="1564.19 1063.84 1568.98 1217.49 1527.47 1217.49 1522.68 1063.84 1564.19 1063.84"/>
        <polygon class="cls-1" points="1605.7 1063.84 1610.48 1217.49 1568.98 1217.49 1564.19 1063.84 1605.7 1063.84"/>
        <polygon class="cls-1" points="1647.2 1063.84 1651.99 1217.49 1610.48 1217.49 1605.7 1063.84 1647.2 1063.84"/>
        <polygon class="cls-1" points="1688.71 1063.84 1693.49 1217.49 1651.99 1217.49 1647.2 1063.84 1688.71 1063.84"/>
        <polygon class="cls-1" points="1730.21 1063.84 1735 1217.49 1693.49 1217.49 1688.71 1063.84 1730.21 1063.84"/>
        <polygon class="cls-1" points="1771.72 1063.84 1776.5 1217.49 1735 1217.49 1730.21 1063.84 1771.72 1063.84"/>
        <polygon class="cls-1" points="1813.22 1063.84 1818.01 1217.49 1776.5 1217.49 1771.72 1063.84 1813.22 1063.84"/>
        <polygon class="cls-1" points="1854.73 1063.84 1859.51 1217.49 1818.01 1217.49 1813.22 1063.84 1854.73 1063.84"/>
        <polygon class="cls-1" points="1896.23 1063.84 1901.02 1217.49 1859.51 1217.49 1854.73 1063.84 1896.23 1063.84"/>
        <polygon class="cls-1" points="1937.74 1063.84 1942.53 1217.49 1901.02 1217.49 1896.23 1063.84 1937.74 1063.84"/>
        <polygon class="cls-1" points="1979.24 1063.84 1984.03 1217.49 1942.53 1217.49 1937.74 1063.84 1979.24 1063.84"/>
        <polygon class="cls-1" points="2020.75 1063.84 2025.54 1217.49 1984.03 1217.49 1979.24 1063.84 2020.75 1063.84"/>
        <polygon class="cls-1" points="2062.26 1063.84 2067.04 1217.49 2025.54 1217.49 2020.75 1063.84 2062.26 1063.84"/>
        <polygon class="cls-1" points="2103.76 1063.84 2108.55 1217.49 2067.04 1217.49 2062.26 1063.84 2103.76 1063.84"/>
        <polygon class="cls-1" points="2145.27 1063.84 2150.05 1217.49 2108.55 1217.49 2103.76 1063.84 2145.27 1063.84"/>
        <polygon class="cls-1" points="2186.77 1063.84 2191.56 1217.49 2150.05 1217.49 2145.27 1063.84 2186.77 1063.84"/>
        <polygon class="cls-1" points="2228.28 1063.84 2233.06 1217.49 2191.56 1217.49 2186.77 1063.84 2228.28 1063.84"/>
        <polygon class="cls-1" points="2269.78 1063.84 2274.57 1217.49 2233.06 1217.49 2228.28 1063.84 2269.78 1063.84"/>
        <polygon class="cls-1" points="2311.29 1063.84 2316.07 1217.49 2274.57 1217.49 2269.78 1063.84 2311.29 1063.84"/>
        <polygon class="cls-1" points="2352.79 1063.84 2355.01 1135.14 2355.01 1217.49 2316.07 1217.49 2311.29 1063.84 2352.79 1063.84"/>
        <polygon class="cls-1" points="2355.01 1135.14 2352.79 1063.84 2355.01 1063.84 2355.01 1135.14"/>
      </g>
    </g>
    <path class="cls-1" d="M1042.23,984.43c-5.83-39.48,20.67-75.43,59.77-81.08,38.42-5.55,73.55,20.64,79.61,59.33,5.88,37.57-21.52,75.12-58.74,80.49-37.82,5.46-75.18-21.76-80.64-58.74Z"/>
    <path class="cls-1" d="M1631.99,954.99c6.74,38.56-18.2,73.75-57.08,80.56-38.3,6.71-73.85-18.32-80.97-57.02-7.2-39.15,18.01-74.48,58.19-81.54,37.89-6.66,73.02,18.85,79.86,58Z"/>
    <path class="cls-1" d="M1293.62,882.79c27.17-10.69,55.91-6.95,83.69-6.68,31.7.31,63.34-4.71,95.04-.76,4.23.53,8.61-.49,10.14,5-62.94,2.47-125.87,4.96-188.87,2.45Z"/>
    <path class="cls-1" d="M1135.21,886c19.82-8.6,40.71-3.4,60.99-3.61,9.63-.1,20.82-8.82,29.85,2.07-30.23,3.45-60.52,3.28-90.84,1.54Z"/>
    <path class="cls-1" d="M1234.02,884.33c17.93-7.94,35.98-5.56,54.06-.66-18,2.44-36.02,2.46-54.06.66Z"/>
    <path class="cls-1" d="M1106.1,887.06c6.91-4.38,13.83-8.35,21.14-.74-6.97,2.58-14.05,1.91-21.14.74Z"/>
    <path class="cls-1" d="M1361.96,1139.13s-1.04,1.06-1.04,1.06"/>
    <g>
      <path class="cls-2" d="M1350.97,485.01s-.08.12-.08.12h0c-.99,1.05-4.15,3.39-5.14,4.43-2.21-.54-2.25-2.38-4.46-2.92-7.54-12.43-14.3-25.41-24.87-35.73-1.51-2.34-3.01-4.69-4.52-7.03-20.18-36.27-45.93-68.91-67.8-104.08-3.06-4.92-10.08-9.86-7.01-15.52,3.04-5.61,11.11-3.13,16.85-2.69,14.94,1.12,19.49-4.41,18.69-19.85-1.81-34.79-1.24-69.7-1.77-104.56-.43-27.76-.51-27.53-27.7-26.99-54.7,1.09-109.41,1.74-164.11,2.89-64.23,1.36-128.46,3.07-192.69,4.62-2.53.07-5.07.13-7.6.2-5.58-.35-9-2.68-11.5-5.86l-55.87-123.31c-1.16-2.7-2.37-5.38-3.64-8.03l-12.21-26.95c-3.75-10.66-10.46-14-21.96-13.73-72.18,1.67-144.39,2.37-216.58,3.85-9.31.19-19.72,1.12-22.52,13.44,0,0-.26.61-.26.61-7.01,18.69-2.67,27.23,16.18,31.83,0,0,1.08.15,1.08.15q18.84.41,46.4-.15l22.1-.07c20.95.93,41.88.45,62.82-.21l56.55-.19c.31.15.69.15,1.15,0l98.3,381.55,6.01,33.13c6.61,44.21,14.4,88.22,23.44,132.01l49.8,259.17c7,14.38,23.49,38.74,53.91,35.46h.19c3.1.09,6.23,0,9.38-.18l22.17-.41c.77.04,1.54.03,2.3-.04l33.64-.62c1.21.05,2.42.02,3.63-.07l27.78-.51c5.95.51,11.91.37,17.87-.33l409.49-7.56c3.16.43,6.41-.11,9.61-.17,8.54-.16,17.08-.32,25.61-.48l151.2-2.79c34.26-.58,55.97-15.8,66.81-47.24,6.11-17.72,3.71-21.31-14.8-21.01-15.92.26-31.85.56-47.77.83v-.04s-392.18,6.73-392.18,6.73c-19.04-1.99-38.11.5-57.12.89-24.89.51-49.95-1.24-74.78,1.38l-55.43.95c-12.37-.06-24.75.33-37.13.64l-17.77.31c-12.6.07-25.38,1.73-37.66-1.54-8.62-2.3-18.2-5.89-16.94-17.56,1.12-10.4,5.87-19.77,16.73-22.93l744.79-13.22,1.32-9.42c.93-2.07,1.27-5.04,1.35-9.59l16.04-114.2h0c6.4-45.51,12.77-91.03,19.06-136.56,11.61-84.05,24.08-168,34.09-252.24,6.04-50.81-26.24-83-76.67-81.77-60.11,1.46-120.24,2.26-180.37,3.24-49.92.81-99.83,1.4-149.75,2.22-9.53.16-18.07,1.31-17.65,14.65,1.29,40.88,2.25,81.77,2.8,122.66.15,11.1,4.27,14.53,15.31,13.95,6.46-.34,16.37-3.53,19.5,3.99,2.77,6.66-4.58,12.99-8.31,19.09"/>
      <g class="cls-4">
        <polygon class="cls-1" points="527.21 11.62 681.18 893.85 527.21 893.85 527.21 11.62"/>
        <polygon class="cls-1" points="551.59 -.25 707.63 893.85 681.18 893.85 527.21 11.62 527.21 -.25 551.59 -.25"/>
        <polygon class="cls-1" points="578.05 -.25 734.09 893.85 707.63 893.85 551.59 -.25 578.05 -.25"/>
        <polygon class="cls-1" points="604.5 -.25 760.54 893.85 734.09 893.85 578.05 -.25 604.5 -.25"/>
        <polygon class="cls-1" points="630.95 -.25 787 893.85 760.54 893.85 604.5 -.25 630.95 -.25"/>
        <polygon class="cls-1" points="657.41 -.25 813.45 893.85 787 893.85 630.95 -.25 657.41 -.25"/>
        <polygon class="cls-1" points="683.86 -.25 839.91 893.85 813.45 893.85 657.41 -.25 683.86 -.25"/>
        <polygon class="cls-1" points="710.32 -.25 866.36 893.85 839.91 893.85 683.86 -.25 710.32 -.25"/>
        <polygon class="cls-1" points="736.77 -.25 892.82 893.85 866.36 893.85 710.32 -.25 736.77 -.25"/>
        <polygon class="cls-1" points="763.23 -.25 919.27 893.85 892.82 893.85 736.77 -.25 763.23 -.25"/>
        <polygon class="cls-1" points="789.68 -.25 945.73 893.85 919.27 893.85 763.23 -.25 789.68 -.25"/>
        <polygon class="cls-1" points="816.14 -.25 972.18 893.85 945.73 893.85 789.68 -.25 816.14 -.25"/>
        <polygon class="cls-1" points="842.59 -.25 998.64 893.85 972.18 893.85 816.14 -.25 842.59 -.25"/>
        <polygon class="cls-1" points="869.05 -.25 1025.09 893.85 998.64 893.85 842.59 -.25 869.05 -.25"/>
        <polygon class="cls-1" points="895.5 -.25 1051.55 893.85 1025.09 893.85 869.05 -.25 895.5 -.25"/>
        <polygon class="cls-1" points="921.96 -.25 1078 893.85 1051.55 893.85 895.5 -.25 921.96 -.25"/>
        <polygon class="cls-1" points="948.41 -.25 1104.46 893.85 1078 893.85 921.96 -.25 948.41 -.25"/>
        <polygon class="cls-1" points="974.87 -.25 1130.91 893.85 1104.46 893.85 948.41 -.25 974.87 -.25"/>
        <polygon class="cls-1" points="1001.32 -.25 1157.37 893.85 1130.91 893.85 974.87 -.25 1001.32 -.25"/>
        <polygon class="cls-1" points="1027.78 -.25 1183.82 893.85 1157.37 893.85 1001.32 -.25 1027.78 -.25"/>
        <polygon class="cls-1" points="1054.23 -.25 1210.28 893.85 1183.82 893.85 1027.78 -.25 1054.23 -.25"/>
        <polygon class="cls-1" points="1080.69 -.25 1236.73 893.85 1210.28 893.85 1054.23 -.25 1080.69 -.25"/>
        <polygon class="cls-1" points="1107.14 -.25 1263.19 893.85 1236.73 893.85 1080.69 -.25 1107.14 -.25"/>
        <polygon class="cls-1" points="1133.6 -.25 1289.64 893.85 1263.19 893.85 1107.14 -.25 1133.6 -.25"/>
        <polygon class="cls-1" points="1160.05 -.25 1316.1 893.85 1289.64 893.85 1133.6 -.25 1160.05 -.25"/>
        <polygon class="cls-1" points="1186.51 -.25 1342.55 893.85 1316.1 893.85 1160.05 -.25 1186.51 -.25"/>
        <polygon class="cls-1" points="1212.96 -.25 1369.01 893.85 1342.55 893.85 1186.51 -.25 1212.96 -.25"/>
        <polygon class="cls-1" points="1239.42 -.25 1395.46 893.85 1369.01 893.85 1212.96 -.25 1239.42 -.25"/>
        <polygon class="cls-1" points="1265.87 -.25 1421.92 893.85 1395.46 893.85 1239.42 -.25 1265.87 -.25"/>
        <polygon class="cls-1" points="1292.33 -.25 1448.37 893.85 1421.92 893.85 1265.87 -.25 1292.33 -.25"/>
        <polygon class="cls-1" points="1318.78 -.25 1474.83 893.85 1448.37 893.85 1292.33 -.25 1318.78 -.25"/>
        <polygon class="cls-1" points="1345.24 -.25 1501.28 893.85 1474.83 893.85 1318.78 -.25 1345.24 -.25"/>
        <polygon class="cls-1" points="1371.69 -.25 1527.74 893.85 1501.28 893.85 1345.24 -.25 1371.69 -.25"/>
        <polygon class="cls-1" points="1398.15 -.25 1554.19 893.85 1527.74 893.85 1371.69 -.25 1398.15 -.25"/>
        <polygon class="cls-1" points="1424.6 -.25 1580.65 893.85 1554.19 893.85 1398.15 -.25 1424.6 -.25"/>
        <polygon class="cls-1" points="1451.06 -.25 1607.1 893.85 1580.65 893.85 1424.6 -.25 1451.06 -.25"/>
        <polygon class="cls-1" points="1477.51 -.25 1633.56 893.85 1607.1 893.85 1451.06 -.25 1477.51 -.25"/>
        <polygon class="cls-1" points="1503.97 -.25 1660.01 893.85 1633.56 893.85 1477.51 -.25 1503.97 -.25"/>
        <polygon class="cls-1" points="1530.42 -.25 1686.47 893.85 1660.01 893.85 1503.97 -.25 1530.42 -.25"/>
        <polygon class="cls-1" points="1556.88 -.25 1712.92 893.85 1686.47 893.85 1530.42 -.25 1556.88 -.25"/>
        <polygon class="cls-1" points="1583.33 -.25 1739.38 893.85 1712.92 893.85 1556.88 -.25 1583.33 -.25"/>
        <polygon class="cls-1" points="1609.79 -.25 1765.83 893.85 1739.38 893.85 1583.33 -.25 1609.79 -.25"/>
        <polygon class="cls-1" points="1636.24 -.25 1792.29 893.85 1765.83 893.85 1609.79 -.25 1636.24 -.25"/>
        <polygon class="cls-1" points="1662.7 -.25 1818.74 893.85 1792.29 893.85 1636.24 -.25 1662.7 -.25"/>
        <polygon class="cls-1" points="1689.15 -.25 1839.45 860.94 1839.45 893.85 1818.74 893.85 1662.7 -.25 1689.15 -.25"/>
        <polygon class="cls-1" points="1715.61 -.25 1839.45 709.36 1839.45 860.94 1689.15 -.25 1715.61 -.25"/>
        <polygon class="cls-1" points="1742.06 -.25 1839.45 557.78 1839.45 709.36 1715.61 -.25 1742.06 -.25"/>
        <polygon class="cls-1" points="1768.52 -.25 1839.45 406.19 1839.45 557.78 1742.06 -.25 1768.52 -.25"/>
        <polygon class="cls-1" points="1794.97 -.25 1839.45 254.61 1839.45 406.19 1768.52 -.25 1794.97 -.25"/>
        <polygon class="cls-1" points="1839.45 254.61 1794.97 -.25 1839.45 -.25 1839.45 254.61"/>
      </g>
    </g>
    <path class="cls-1" d="M731.71,700.55l123.63,132.32-12.02,11.66c-11.27-7.48-20.02-10.7-26.27-9.66-6.26,1.01-22.48,12.28-48.65,33.78-54.21,44.37-100.78,75.96-139.72,94.73-38.94,18.72-86.63,32.76-143.05,42.01-112.49,18.46-209.14,6.98-289.96-34.48-47.59-24.04-87.31-57.01-119.24-98.99-36.84-47.92-60.46-103.61-70.87-166.98-14.15-86.36-1.22-165.55,38.81-237.56,60.2-108.23,167.09-174.95,320.67-200.16,56.41-9.26,105.77-11.27,148.11-6.05,42.34,5.19,96.65,20.24,162.98,45.11,31.57,11.66,50.52,16.94,56.78,15.9,6.26-1.03,13.53-6.85,21.81-17.52l15.11,7.18-74.82,165.15-15.63-7.05c-.23-5.67-.62-10.4-1.25-14.21-1.66-10.07-7.58-18.8-17.73-26.22-10.15-7.41-27.42-15.54-51.74-24.38-67.32-24.57-135.47-31.21-204.42-19.89-81.49,13.37-143.1,44.39-184.82,93.02-49.3,57.04-67.63,123.99-55.01,200.89,12.62,76.86,51.38,134.44,116.33,172.73,55.06,32.74,123.37,42.45,204.83,29.08,68.95-11.32,131.42-39.44,187.34-84.4,20.2-16.17,33.96-29.44,41.2-39.75,7.24-10.31,10.07-20.51,8.41-30.61-.62-3.84-1.74-8.31-3.3-13.42l12.49-12.23Z"/>
    <path class="cls-1" d="M2533.88,746.42l81.28,161.82-14.85,7.79c-8.67-10.33-16.17-15.89-22.48-16.69-6.28-.78-25.03,5.45-56.18,18.69-64.54,27.29-118.15,44.45-160.8,51.46-42.63,6.98-92.34,7.01-149.07-.03-113.11-14.05-202.6-52.34-268.44-114.93-38.89-36.45-67.73-79.31-86.48-128.59-21.81-56.37-28.79-116.45-20.87-180.18,10.75-86.85,45.54-159.18,104.26-216.98,88.27-86.84,209.64-120.68,364.11-101.53,56.73,7.04,104.62,19.03,143.8,35.97,39.18,16.94,87.05,46.7,143.62,89.28,27.03,20.08,43.69,30.49,49.98,31.27,6.31.78,14.95-2.76,25.88-10.67l12.49,11.15-118.38,137.35-13.01-11.19c1.38-5.49,2.34-10.15,2.8-13.99,1.25-10.11-1.95-20.16-9.61-30.14-7.63-9.98-21.91-22.65-42.76-37.99-57.66-42.58-121.16-68.15-190.5-76.75-81.96-10.15-149.82,2.22-203.54,37.1-63.4,40.81-99.87,99.87-109.48,177.2-9.58,77.31,11.37,143.49,62.88,198.55,43.59,46.96,106.36,75.52,188.32,85.67,69.34,8.62,137.18-.75,203.51-28.09,23.96-9.84,40.91-18.69,50.75-26.51,9.87-7.87,15.42-16.85,16.69-27,.47-3.87.67-8.46.62-13.81l15.45-8.2Z"/>
  </g>
  <g>
    <path class="cls-1" d="M274.14,1411.26l17.8,26.66-2.44,1.69c-1.75-1.63-3.19-2.44-4.31-2.44s-4.28,1.5-9.46,4.51c-10.75,6.2-19.79,10.38-27.13,12.54-7.34,2.16-16.07,3.24-26.19,3.24-20.18,0-36.73-4.78-49.66-14.34-7.62-5.56-13.62-12.46-17.99-20.71-5.06-9.43-7.59-19.83-7.59-31.2,0-15.49,4.53-28.95,13.59-40.39,13.62-17.18,34.2-25.77,61.75-25.77,10.12,0,18.8,1.06,26.05,3.19,7.25,2.12,16.3,6.31,27.17,12.56,5.18,2.94,8.34,4.4,9.46,4.4s2.56-.81,4.31-2.44l2.44,1.69-17.8,26.71-2.53-1.68c.12-1,.19-1.83.19-2.52,0-1.8-.78-3.5-2.34-5.09-1.56-1.59-4.34-3.5-8.34-5.74-11.06-6.22-22.77-9.33-35.14-9.33-14.62,0-26.27,3.65-34.95,10.95-10.25,8.55-15.37,19.72-15.37,33.51s5.12,24.96,15.37,33.51c8.68,7.3,20.33,10.95,34.95,10.95,12.37,0,24.08-3.12,35.14-9.37,4-2.25,6.78-4.17,8.34-5.76,1.56-1.59,2.34-3.29,2.34-5.11,0-.69-.06-1.5-.19-2.44l2.53-1.78Z"/>
    <path class="cls-1" d="M345.08,1403.01v42.45c0,1.87.45,3.33,1.36,4.36.9,1.03,2.45,1.83,4.64,2.39v3h-39.92v-3c2.25-.62,3.81-1.44,4.69-2.44.87-1,1.31-2.44,1.31-4.31v-108.32c0-1.94-.44-3.4-1.31-4.4-.88-1-2.44-1.81-4.69-2.44v-3h80.02c9.75,0,17.48.56,23.19,1.69,5.72,1.12,10.7,3.09,14.95,5.9,4.93,3.25,8.62,7.65,11.06,13.21,2.31,5.37,3.47,11.12,3.47,17.24,0,20.86-11.59,33.08-34.76,36.64l24.83,35.33c4.37,6.18,7.57,10.17,9.6,11.95,2.03,1.78,4.51,2.76,7.45,2.95v3h-46.21v-3c3.18-.5,4.77-1.62,4.77-3.37,0-1.12-1.47-3.84-4.4-8.15l-25.9-37.67h-34.14ZM345.08,1381.93h43.1c6.37,0,10.87-.19,13.49-.56,2.62-.37,5.03-1.16,7.22-2.34,4.75-2.56,7.12-7.18,7.12-13.87s-2.37-11.31-7.12-13.87c-2.25-1.25-4.64-2.04-7.17-2.39-2.53-.34-7.04-.52-13.54-.52h-43.1v33.55Z"/>
    <path class="cls-1" d="M500.25,1399.08v35.04h82.27c1.87,0,3.31-.44,4.31-1.31,1-.87,1.81-2.44,2.44-4.69h3v33.08h-3c-.62-2.25-1.44-3.81-2.44-4.69-1-.88-2.44-1.31-4.31-1.31h-116.19v-3c2.25-.62,3.81-1.44,4.69-2.44.87-1,1.31-2.47,1.31-4.4v-108.23c0-1.94-.44-3.4-1.31-4.4-.88-1-2.44-1.81-4.69-2.44v-3h113.94c1.87,0,3.31-.44,4.31-1.34,1-.89,1.81-2.45,2.44-4.66h3v33.08h-3c-.63-2.22-1.44-3.78-2.44-4.66-1-.89-2.44-1.33-4.31-1.33h-80.02v30.36h51.91c1.87,0,3.31-.44,4.31-1.31,1-.87,1.81-2.44,2.44-4.68h3v32.33h-3c-.62-2.19-1.44-3.73-2.44-4.64-1-.9-2.44-1.36-4.31-1.36h-51.91Z"/>
    <path class="cls-1" d="M690.89,1455.2l-47.18-88.36v78.52c0,1.94.44,3.41,1.31,4.4.87,1,2.44,1.81,4.69,2.44v3h-37.57v-3c2.25-.62,3.81-1.44,4.69-2.44.87-1,1.31-2.47,1.31-4.4v-108.32c0-1.87-.44-3.31-1.31-4.31-.88-1-2.44-1.81-4.69-2.44v-3h49.3v3c-2.94.75-4.4,2.47-4.4,5.15,0,1.25.44,2.69,1.31,4.31l34.89,66.12,35.36-64.99c1.56-2.87,2.34-4.97,2.34-6.28,0-2.56-1.56-4-4.69-4.31v-3h48.36v3c-2.25.62-3.81,1.44-4.69,2.44-.88,1-1.31,2.44-1.31,4.31v108.32c0,1.94.44,3.41,1.31,4.4.87,1,2.44,1.81,4.69,2.44v3h-39.92v-3c2.19-.56,3.73-1.36,4.64-2.39.9-1.03,1.36-2.51,1.36-4.45v-78.52l-49.8,88.36Z"/>
    <path class="cls-1" d="M831.49,1399.08v35.04h82.27c1.87,0,3.31-.44,4.31-1.31,1-.87,1.81-2.44,2.44-4.69h3v33.08h-3c-.62-2.25-1.44-3.81-2.44-4.69-1-.88-2.44-1.31-4.31-1.31h-116.19v-3c2.25-.62,3.81-1.44,4.69-2.44.87-1,1.31-2.47,1.31-4.4v-108.23c0-1.94-.44-3.4-1.31-4.4-.88-1-2.44-1.81-4.69-2.44v-3h113.94c1.87,0,3.31-.44,4.31-1.34,1-.89,1.81-2.45,2.44-4.66h3v33.08h-3c-.63-2.22-1.44-3.78-2.44-4.66-1-.89-2.44-1.33-4.31-1.33h-80.02v30.36h51.91c1.87,0,3.31-.44,4.31-1.31,1-.87,1.81-2.44,2.44-4.68h3v32.33h-3c-.62-2.19-1.44-3.73-2.44-4.64-1-.9-2.44-1.36-4.31-1.36h-51.91Z"/>
    <path class="cls-1" d="M1115.31,1411.26l17.8,26.66-2.44,1.69c-1.75-1.63-3.19-2.44-4.31-2.44s-4.28,1.5-9.46,4.51c-10.75,6.2-19.79,10.38-27.13,12.54-7.34,2.16-16.07,3.24-26.19,3.24-20.18,0-36.73-4.78-49.66-14.34-7.62-5.56-13.62-12.46-17.99-20.71-5.06-9.43-7.59-19.83-7.59-31.2,0-15.49,4.53-28.95,13.59-40.39,13.62-17.18,34.2-25.77,61.75-25.77,10.12,0,18.8,1.06,26.05,3.19,7.25,2.12,16.3,6.31,27.17,12.56,5.18,2.94,8.34,4.4,9.46,4.4s2.56-.81,4.31-2.44l2.44,1.69-17.8,26.71-2.53-1.68c.12-1,.19-1.83.19-2.52,0-1.8-.78-3.5-2.34-5.09-1.56-1.59-4.34-3.5-8.34-5.74-11.06-6.22-22.77-9.33-35.14-9.33-14.62,0-26.27,3.65-34.95,10.95-10.25,8.55-15.37,19.72-15.37,33.51s5.12,24.96,15.37,33.51c8.68,7.3,20.33,10.95,34.95,10.95,12.37,0,24.08-3.12,35.14-9.37,4-2.25,6.78-4.17,8.34-5.76,1.56-1.59,2.34-3.29,2.34-5.11,0-.69-.06-1.5-.19-2.44l2.53-1.78Z"/>
    <path class="cls-1" d="M1218.99,1325.05c22.31,0,40,6.03,53.07,18.08,13.81,12.62,20.72,28.92,20.72,48.91,0,12.24-3.31,23.68-9.94,34.29-12.94,20.74-34.16,31.11-63.67,31.11-22.13,0-39.72-6.03-52.79-18.08-7-6.43-12.31-14.15-15.94-23.14-3.19-7.93-4.78-16.27-4.78-25.02,0-12.8,3.28-24.52,9.84-35.14,12.56-20.3,33.72-30.64,63.48-31.01ZM1219.09,1346.79c-12.19,0-22.36,3.62-30.49,10.86-9.63,8.55-14.44,19.75-14.44,33.6s4.81,25.06,14.44,33.6c8.13,7.24,18.35,10.86,30.67,10.86s22.51-3.62,30.58-10.86c4.81-4.31,8.5-9.58,11.07-15.82,2.25-5.55,3.38-11.29,3.38-17.22,0-14.48-4.82-25.87-14.44-34.17-8.19-7.11-18.45-10.73-30.77-10.86Z"/>
    <path class="cls-1" d="M1346.76,1434.12h78.62c1.94,0,3.4-.44,4.4-1.31,1-.87,1.81-2.44,2.44-4.69h3v33.08h-3c-.62-2.25-1.44-3.81-2.44-4.69-1-.88-2.47-1.31-4.4-1.31h-112.54v-3c2.25-.62,3.81-1.44,4.69-2.44.88-1,1.31-2.47,1.31-4.4v-108.23c0-1.94-.44-3.4-1.31-4.4-.88-1-2.44-1.81-4.69-2.44v-3h39.92v3c-2.25.56-3.81,1.36-4.69,2.39-.88,1.03-1.31,2.51-1.31,4.45v96.98Z"/>
    <path class="cls-1" d="M1482.53,1434.12h78.62c1.94,0,3.4-.44,4.4-1.31,1-.87,1.81-2.44,2.44-4.69h3v33.08h-3c-.62-2.25-1.44-3.81-2.44-4.69-1-.88-2.47-1.31-4.4-1.31h-112.54v-3c2.25-.62,3.81-1.44,4.69-2.44.87-1,1.31-2.47,1.31-4.4v-108.23c0-1.94-.44-3.4-1.31-4.4-.88-1-2.44-1.81-4.69-2.44v-3h39.92v3c-2.25.56-3.81,1.36-4.68,2.39-.88,1.03-1.31,2.51-1.31,4.45v96.98Z"/>
    <path class="cls-1" d="M1618.31,1399.08v35.04h82.27c1.87,0,3.31-.44,4.31-1.31,1-.87,1.81-2.44,2.44-4.69h3v33.08h-3c-.62-2.25-1.44-3.81-2.44-4.69-1-.88-2.44-1.31-4.31-1.31h-116.19v-3c2.25-.62,3.81-1.44,4.69-2.44.87-1,1.31-2.47,1.31-4.4v-108.23c0-1.94-.44-3.4-1.31-4.4-.88-1-2.44-1.81-4.69-2.44v-3h113.94c1.87,0,3.31-.44,4.31-1.34,1-.89,1.81-2.45,2.44-4.66h3v33.08h-3c-.62-2.22-1.44-3.78-2.44-4.66-1-.89-2.44-1.33-4.31-1.33h-80.02v30.36h51.91c1.87,0,3.31-.44,4.31-1.31,1-.87,1.81-2.44,2.44-4.68h3v32.33h-3c-.62-2.19-1.44-3.73-2.44-4.64-1-.9-2.44-1.36-4.31-1.36h-51.91Z"/>
    <path class="cls-1" d="M1854.16,1411.26l17.8,26.66-2.44,1.69c-1.75-1.63-3.19-2.44-4.31-2.44s-4.28,1.5-9.46,4.51c-10.75,6.2-19.79,10.38-27.13,12.54-7.34,2.16-16.07,3.24-26.19,3.24-20.18,0-36.73-4.78-49.66-14.34-7.62-5.56-13.62-12.46-17.99-20.71-5.06-9.43-7.59-19.83-7.59-31.2,0-15.49,4.53-28.95,13.59-40.39,13.62-17.18,34.2-25.77,61.75-25.77,10.12,0,18.8,1.06,26.05,3.19,7.25,2.12,16.3,6.31,27.17,12.56,5.18,2.94,8.34,4.4,9.46,4.4s2.56-.81,4.31-2.44l2.44,1.69-17.8,26.71-2.53-1.68c.12-1,.19-1.83.19-2.52,0-1.8-.78-3.5-2.34-5.09-1.56-1.59-4.34-3.5-8.34-5.74-11.06-6.22-22.77-9.33-35.14-9.33-14.62,0-26.27,3.65-34.95,10.95-10.25,8.55-15.37,19.72-15.37,33.51s5.12,24.96,15.37,33.51c8.68,7.3,20.33,10.95,34.95,10.95,12.37,0,24.08-3.12,35.14-9.37,4-2.25,6.78-4.17,8.34-5.76,1.56-1.59,2.34-3.29,2.34-5.11,0-.69-.06-1.5-.19-2.44l2.53-1.78Z"/>
    <path class="cls-1" d="M1958.35,1348.38v96.98c0,1.94.44,3.41,1.31,4.4.88,1,2.44,1.81,4.69,2.44v3h-39.92v-3c2.25-.62,3.81-1.44,4.68-2.44.87-1,1.31-2.47,1.31-4.4v-96.98h-39.73c-1.87,0-3.31.43-4.31,1.29s-1.81,2.43-2.44,4.71h-3v-33.08h3c.69,2.28,1.51,3.84,2.48,4.71.97.86,2.39,1.29,4.26,1.29h107.29c1.94,0,3.4-.43,4.4-1.29,1-.86,1.81-2.43,2.44-4.71h3v33.08h-3c-.62-2.28-1.44-3.85-2.44-4.71-1-.86-2.47-1.29-4.4-1.29h-39.64Z"/>
    <path class="cls-1" d="M2026.57,1445.36v-108.32c0-1.87-.44-3.31-1.31-4.31-.88-1-2.44-1.81-4.69-2.44v-3h39.92v3c-2.25.56-3.81,1.36-4.68,2.39-.88,1.03-1.31,2.48-1.31,4.36v108.32c0,1.94.45,3.42,1.36,4.45.9,1.03,2.45,1.83,4.64,2.39v3h-39.92v-3c2.25-.62,3.81-1.44,4.69-2.44.87-1,1.31-2.47,1.31-4.4Z"/>
    <path class="cls-1" d="M2153.77,1325.05c22.31,0,40,6.03,53.07,18.08,13.81,12.62,20.72,28.92,20.72,48.91,0,12.24-3.31,23.68-9.94,34.29-12.94,20.74-34.16,31.11-63.67,31.11-22.13,0-39.72-6.03-52.79-18.08-7-6.43-12.31-14.15-15.94-23.14-3.19-7.93-4.78-16.27-4.78-25.02,0-12.8,3.28-24.52,9.84-35.14,12.56-20.3,33.72-30.64,63.48-31.01ZM2153.86,1346.79c-12.19,0-22.36,3.62-30.49,10.86-9.63,8.55-14.44,19.75-14.44,33.6s4.81,25.06,14.44,33.6c8.13,7.24,18.35,10.86,30.67,10.86s22.51-3.62,30.58-10.86c4.81-4.31,8.5-9.58,11.07-15.82,2.25-5.55,3.38-11.29,3.38-17.22,0-14.48-4.82-25.87-14.45-34.17-8.19-7.11-18.45-10.73-30.77-10.86Z"/>
    <path class="cls-1" d="M2279.19,1367.59v77.77c0,1.94.44,3.41,1.31,4.4.87,1,2.44,1.81,4.69,2.44v3h-37.58v-3c2.25-.62,3.81-1.44,4.69-2.44.87-1,1.31-2.47,1.31-4.4v-108.32c0-1.87-.44-3.31-1.31-4.31-.88-1-2.44-1.81-4.69-2.44v-3h43.48v3c-2.69.69-4.03,2.12-4.03,4.31,0,1.5.87,3.15,2.62,4.97l70.56,73.37v-75.9c0-1.87-.44-3.31-1.31-4.31-.88-1-2.44-1.81-4.68-2.44v-3h37.57v3c-2.25.62-3.81,1.44-4.68,2.44-.88,1-1.31,2.44-1.31,4.31v108.32c0,1.94.44,3.41,1.31,4.4.87,1,2.44,1.81,4.68,2.44v3h-40.29v-3c2.62-.56,3.94-1.91,3.94-4.03,0-1.25-1.53-3.44-4.59-6.56l-71.68-74.03Z"/>
    <path class="cls-1" d="M2533.87,1338.13l-15.27,30.12-2.62-1.5c.06-.62.09-1.12.09-1.5,0-2.12-1.81-4.4-5.43-6.84-11.12-7.75-24.17-11.62-39.17-11.62-6.62,0-12.46.81-17.52,2.43-3.69,1.25-6.67,3.12-8.95,5.62-2.28,2.5-3.42,5.21-3.42,8.14,0,4.8,2.91,8.08,8.71,9.83,3,.87,9.43,1.81,19.3,2.81l14.71,1.5c8.75.94,15.82,2.22,21.22,3.84,5.4,1.62,10.2,3.9,14.38,6.83,4.25,3.06,7.61,7.08,10.07,12.08,2.47,4.99,3.7,10.33,3.7,16.01,0,8.99-2.9,16.98-8.71,23.97-5.25,6.37-13.4,11.08-24.46,14.14-8.25,2.31-17.09,3.46-26.52,3.46-16.93,0-33.64-4.06-50.13-12.18-3.5-1.62-5.59-2.44-6.28-2.44-.81,0-2.09.69-3.84,2.06l-2.72-1.41,13.87-31.39,2.72,1.31v1.22c0,2.81,1.34,5.4,4.03,7.78,4.06,3.62,10.34,6.75,18.83,9.37,8.49,2.62,16.55,3.94,24.17,3.94,8.31,0,15.4-1.4,21.27-4.21,3.25-1.56,5.84-3.63,7.78-6.22,1.94-2.59,2.9-5.28,2.9-8.09,0-4.24-2.28-7.26-6.84-9.07-3.19-1.25-9.62-2.4-19.3-3.46l-14.43-1.5c-9.68-1-16.52-1.95-20.52-2.86-4-.91-8-2.36-11.99-4.36-5.68-2.81-10.15-7.03-13.4-12.66-2.94-5.06-4.4-10.88-4.4-17.44,0-10.81,3.72-19.75,11.15-26.82,9.75-9.31,24.36-13.97,43.85-13.97,8.18,0,15.8.83,22.86,2.49,7.06,1.66,15.87,4.72,26.42,9.17,3.62,1.44,5.84,2.17,6.65,2.17,1.31,0,2.84-.72,4.59-2.17l2.62,1.41Z"/>
  </g>
</svg>